<svg width="15" height="21" viewBox="0 0 15 21" fill="none" xmlns="http://www.w3.org/2000/svg">
<path d="M7.97894 11.6233H7.02097C6.90659 11.6233 6.8208 11.7091 6.8208 11.8235L6.8351 16.5275C6.8351 16.6419 6.92089 16.7277 7.03527 16.7277H7.99324C8.10762 16.7277 8.19341 16.6419 8.19341 16.5275L8.17911 11.8235C8.19341 11.7234 8.09333 11.6233 7.97894 11.6233Z" fill="#3761FA"/>
<path d="M11.5953 7.10498C11.1664 7.10498 10.8232 7.44813 10.8232 7.87707C10.8232 8.30602 11.1664 8.64917 11.5953 8.64917C12.0243 8.64917 12.3674 8.30602 12.3674 7.87707C12.3674 7.44813 12.0243 7.10498 11.5953 7.10498Z" fill="#0061FF"/>
<path d="M14.7985 7.1908H13.1685C13.0541 7.1908 12.9683 7.27658 12.9683 7.39097V8.34894C12.9683 8.46332 13.0541 8.54911 13.1685 8.54911H13.6403V19.4585H1.35831V8.56341H10.0086C10.123 8.56341 10.2088 8.47762 10.2088 8.36324V7.40527C10.2088 7.29088 10.123 7.20509 10.0086 7.20509H4.07494V5.14618C4.07494 3.18735 5.73351 1.61456 7.72094 1.74325C9.53679 1.85763 10.8951 3.45901 10.8951 5.26056V6.30432C10.8951 6.4187 10.9809 6.50449 11.0953 6.50449H12.0532C12.1676 6.50449 12.2534 6.4187 12.2534 6.30432V5.14618C12.282 2.42955 10.0086 0.241953 7.2634 0.370635C4.70405 0.499317 2.73092 2.71551 2.73092 5.28916V7.20509H0.200172C0.0857882 7.20509 0 7.29088 0 7.40527V20.6452C0 20.7596 0.0857882 20.8454 0.200172 20.8454H14.7985C14.9128 20.8454 14.9986 20.7596 14.9986 20.6452V7.39097C15.0129 7.29088 14.9128 7.1908 14.7985 7.1908Z" fill="#0061FF"/>
</svg>
