<svg width="23" height="19" viewBox="0 0 23 19" fill="none" xmlns="http://www.w3.org/2000/svg">
<path d="M11.2355 8.65455C8.85366 8.65455 6.9082 6.70909 6.9082 4.32727C6.9082 1.94545 8.85366 0 11.2355 0C13.6173 0 15.5627 1.94545 15.5627 4.32727C15.5627 6.70909 13.6173 8.65455 11.2355 8.65455ZM11.2355 1.72727C9.79911 1.72727 8.63548 2.89091 8.63548 4.32727C8.63548 5.76364 9.79911 6.92727 11.2355 6.92727C12.6718 6.92727 13.8355 5.76364 13.8355 4.32727C13.8355 2.89091 12.6718 1.72727 11.2355 1.72727Z" fill="#0061FF"/>
<path d="M19.0343 18.9454H3.4707V14.7091C3.4707 10.4182 6.96161 6.92725 11.2525 6.92725C15.5434 6.92725 19.0343 10.4182 19.0343 14.7091V18.9454ZM5.19798 17.2182H17.3071V14.7091C17.3071 11.3636 14.598 8.65452 11.2525 8.65452C7.90707 8.65452 5.19798 11.3636 5.19798 14.7091V17.2182Z" fill="#0061FF"/>
<path d="M16.3594 12.1389H19.526V15.3056H16.3594V12.1389Z" fill="white"/>
<path d="M17.8508 12.6667C17.3236 12.6667 16.8872 13.1031 16.8872 13.6304C16.8872 14.1577 17.3236 14.594 17.8508 14.594C18.3781 14.594 18.8145 14.1577 18.8145 13.6304C18.8327 13.1031 18.3963 12.6667 17.8508 12.6667Z" fill="#0061FF"/>
</svg>
